<svg width="2425" height="2420" xmlns="http://www.w3.org/2000/svg" xmlns:xlink="http://www.w3.org/1999/xlink" xml:space="preserve" overflow="hidden"><defs><clipPath id="clip0"><rect x="457" y="94" width="2417" height="2416"/></clipPath></defs><g transform="translate(-453 -91)"><g><g clip-path="url(#clip0)"><g><g><path d="M2068.75 0 2068.75 1861.06 1207.5 2415 346.251 1861.06 457.944 1776.23 589.683 1861.06 1207.5 2258.45 1825.32 1861.06 1957.06 1776.23 1957.06 119.301Z" fill="#002F46" fill-rule="nonzero" fill-opacity="1" transform="matrix(1.00041 0 0 1 458 94.9999)"/><path d="M2068.75 0 1957.06 119.301 457.944 119.301 457.944 1776.23 346.251 1861.06 346.251 0Z" fill="#627F96" fill-rule="nonzero" fill-opacity="1" transform="matrix(1.00041 0 0 1 458 94.9999)"/><path d="M1957.06 119.301 1957.06 1776.23 1825.32 1861.06 1207.5 2258.45 589.683 1861.06 457.944 1776.23 457.944 119.301Z" fill="#E3E7E5" fill-rule="nonzero" fill-opacity="1" transform="matrix(1.00041 0 0 1 458 94.9999)"/></g></g></g><path d="M0 0 831 0 831 104 0 104Z" fill="#750787" fill-rule="evenodd" fill-opacity="1" transform="matrix(6.12323e-17 1 1 -6.12323e-17 2418 1056)"/><path d="M0 0 832 0 832 104 0 104Z" fill="#004DFF" fill-rule="evenodd" fill-opacity="1" transform="matrix(6.12323e-17 1 1 -6.12323e-17 2416 217)"/><path d="M0 0 137 0 137 867 0 867Z" fill="#008026" fill-rule="evenodd" fill-opacity="1" transform="matrix(6.12323e-17 1 1 -6.12323e-17 1653 95)"/><path d="M0 0 137 0 137 827 0 827Z" fill="#FFED00" fill-rule="evenodd" fill-opacity="1" transform="matrix(6.12323e-17 1 1 -6.12323e-17 807 94.9999)"/><path d="M0 0 831 0 831 104 0 104Z" fill="#FF8C00" fill-rule="evenodd" fill-opacity="1" transform="matrix(6.12323e-17 1 1 -6.12323e-17 806 224)"/><path d="M0 0 832 0 832 104 0 104Z" fill="#E40303" fill-rule="evenodd" fill-opacity="1" transform="matrix(6.12323e-17 1 1 -6.12323e-17 811 1055)"/><path d="M0 0 888 759 0 1518Z" fill="#000000" fill-rule="evenodd" fill-opacity="1" transform="matrix(6.12323e-17 1 1 -6.12323e-17 911 232)"/><path d="M0 0 739 632 0 1264Z" fill="#613915" fill-rule="evenodd" fill-opacity="1" transform="matrix(6.12323e-17 1 1 -6.12323e-17 1038 232)"/><path d="M0 1009 0 0 593 504.5Z" fill="#74D7EE" fill-rule="evenodd" fill-opacity="1" transform="matrix(6.12323e-17 1 1 -6.12323e-17 1166 232)"/><path d="M0 754 0 0 440 377Z" fill="#FFAFC8" fill-rule="evenodd" fill-opacity="1" transform="matrix(6.12323e-17 1 1 -6.12323e-17 1293 232)"/><path d="M0 0 295 250 0 500Z" fill="#FFFFFF" fill-rule="evenodd" fill-opacity="1" transform="matrix(6.12323e-17 1 1 -6.12323e-17 1420 232)"/><text fill="#000000" fill-opacity="1" font-family="Consolas,Consolas_MSFontService,sans-serif" font-style="normal" font-variant="normal" font-weight="400" font-stretch="normal" font-size="183" text-anchor="start" direction="ltr" writing-mode="lr-tb" unicode-bidi="normal" text-decoration="none" transform="matrix(1 0 0 1 1129.42 1545)">Coded With</text><text fill="#000000" fill-opacity="1" font-family="Consolas,Consolas_MSFontService,sans-serif" font-style="normal" font-variant="normal" font-weight="400" font-stretch="normal" font-size="183" text-anchor="start" direction="ltr" writing-mode="lr-tb" unicode-bidi="normal" text-decoration="none" transform="matrix(1 0 0 1 1381.5 1765)">Pride</text></g></g></svg>