<svg width="1568" height="1348" xmlns="http://www.w3.org/2000/svg" xmlns:xlink="http://www.w3.org/1999/xlink" xml:space="preserve" overflow="hidden"><defs><clipPath id="clip0"><rect x="521" y="459" width="973" height="923"/></clipPath><clipPath id="clip1"><rect x="521" y="460" width="973" height="922"/></clipPath><clipPath id="clip2"><rect x="521" y="460" width="973" height="922"/></clipPath></defs><g transform="translate(-224 -389)"><g><g><g><g><path d="M1147.88 0 1147.88 1032.64 670 1340 192.122 1032.64 254.097 985.57 327.194 1032.64 670 1253.13 1012.81 1032.64 1085.9 985.57 1085.9 66.196Z" fill="#002F46" fill-rule="nonzero" fill-opacity="1" transform="matrix(1.16418 0 0 1 228 393)"/><path d="M1147.88 0 1085.9 66.196 254.097 66.196 254.097 985.57 192.122 1032.64 192.122 0Z" fill="#627F96" fill-rule="nonzero" fill-opacity="1" transform="matrix(1.16418 0 0 1 228 393)"/><path d="M1085.9 66.196 1085.9 985.57 1012.81 1032.64 670 1253.13 327.194 1032.64 254.097 985.57 254.097 66.196Z" fill="#E3E7E5" fill-rule="nonzero" fill-opacity="1" transform="matrix(1.16418 0 0 1 228 393)"/></g></g></g><g clip-path="url(#clip0)"><g clip-path="url(#clip1)"><g clip-path="url(#clip2)"><path d="M0 0 921.66 0 921.66 585.254 0 585.254Z" fill="#750787" fill-rule="nonzero" fill-opacity="1" transform="matrix(-1.83697e-16 -1 1.66253 -3.05401e-16 521 1381.83)"/><path d="M0 0 921.66 0 921.66 487.712 0 487.712Z" fill="#004DFF" fill-rule="nonzero" fill-opacity="1" transform="matrix(-1.83697e-16 -1 1.66253 -3.05401e-16 521 1381.83)"/><path d="M0 0 921.66 0 921.66 390.169 0 390.169Z" fill="#008026" fill-rule="nonzero" fill-opacity="1" transform="matrix(-1.83697e-16 -1 1.66253 -3.05401e-16 521 1381.83)"/><path d="M0 0 921.66 0 921.66 292.627 0 292.627Z" fill="#FFED00" fill-rule="nonzero" fill-opacity="1" transform="matrix(-1.83697e-16 -1 1.66253 -3.05401e-16 521 1381.83)"/><path d="M0 0 921.66 0 921.66 195.085 0 195.085Z" fill="#FF8C00" fill-rule="nonzero" fill-opacity="1" transform="matrix(-1.83697e-16 -1 1.66253 -3.05401e-16 521 1381.83)"/><path d="M0 0 921.66 0 921.66 97.5423 0 97.5423Z" fill="#E40303" fill-rule="nonzero" fill-opacity="1" transform="matrix(-1.83697e-16 -1 1.66253 -3.05401e-16 521 1381.83)"/><path d="M0-147.542 439.939 292.627 0 732.796Z" fill="#000000" fill-rule="nonzero" fill-opacity="1" transform="matrix(-1.83697e-16 -1 1.66253 -3.05401e-16 521 1381.83)"/><path d="M0-73.7328 366.206 292.627 0 658.987Z" fill="#613915" fill-rule="nonzero" fill-opacity="1" transform="matrix(-1.83697e-16 -1 1.66253 -3.05401e-16 521 1381.83)"/><path d="M0 585.254 0 0 293.702 292.627Z" fill="#74D7EE" fill-rule="nonzero" fill-opacity="1" transform="matrix(-1.83697e-16 -1 1.66253 -3.05401e-16 521 1381.83)"/><path d="M0 511.521 0 73.7328 218.126 292.627Z" fill="#FFAFC8" fill-rule="nonzero" fill-opacity="1" transform="matrix(-1.83697e-16 -1 1.66253 -3.05401e-16 521 1381.83)"/><path d="M0 147.466 146.083 292.627 0 437.788Z" fill="#FFFFFF" fill-rule="nonzero" fill-opacity="1" transform="matrix(-1.83697e-16 -1 1.66253 -3.05401e-16 521 1381.83)"/></g></g></g><path d="M0 279 478.891 0 973 279Z" stroke="#042433" stroke-width="6.875" stroke-linecap="butt" stroke-linejoin="miter" stroke-miterlimit="8" stroke-opacity="1" fill="#156082" fill-rule="evenodd" fill-opacity="1" transform="matrix(1 0 0 -1 521.5 1661.5)"/><text fill="#FFFFFF" fill-opacity="1" font-family="Consolas,Consolas_MSFontService,sans-serif" font-style="normal" font-variant="normal" font-weight="400" font-stretch="normal" font-size="83" text-anchor="start" direction="ltr" writing-mode="lr-tb" unicode-bidi="normal" text-decoration="none" transform="matrix(1 0 0 1 756.782 1487)">Queer Coded</text></g></g></svg>